<svg width="64" height="64" viewBox="0 0 64 64" fill="none" xmlns="http://www.w3.org/2000/svg">
  <defs>
    <linearGradient id="gradient" x1="0%" y1="0%" x2="100%" y2="100%">
      <stop offset="0%" style="stop-color:#2AF5FF;stop-opacity:1" />
      <stop offset="100%" style="stop-color:#3B82F6;stop-opacity:1" />
    </linearGradient>
  </defs>
  
  <!-- Spider body -->
  <ellipse cx="32" cy="32" rx="8" ry="12" fill="url(#gradient)"/>
  
  <!-- Spider legs -->
  <g stroke="url(#gradient)" stroke-width="2" stroke-linecap="round">
    <!-- Left legs -->
    <path d="M24 20 L12 8"/>
    <path d="M20 28 L6 24"/>
    <path d="M20 36 L6 40"/>
    <path d="M24 44 L12 56"/>
    
    <!-- Right legs -->
    <path d="M40 20 L52 8"/>
    <path d="M44 28 L58 24"/>
    <path d="M44 36 L58 40"/>
    <path d="M40 44 L52 56"/>
  </g>
  
  <!-- Web/network pattern -->
  <g stroke="url(#gradient)" stroke-width="1" opacity="0.3" fill="none">
    <circle cx="32" cy="16" r="4"/>
    <circle cx="48" cy="32" r="4"/>
    <circle cx="32" cy="48" r="4"/>
    <circle cx="16" cy="32" r="4"/>
    
    <line x1="32" y1="20" x2="32" y2="28"/>
    <line x1="44" y1="32" x2="36" y2="32"/>
    <line x1="32" y1="44" x2="32" y2="36"/>
    <line x1="20" y1="32" x2="28" y2="32"/>
  </g>
</svg> 